<?xml version="1.0" standalone="no"?>
<!DOCTYPE svg PUBLIC "-//W3C//DTD SVG 20010904//EN"
 "http://www.w3.org/TR/2001/REC-SVG-20010904/DTD/svg10.dtd">
<svg version="1.0" xmlns="http://www.w3.org/2000/svg"
 width="300.000000pt" height="178.000000pt" viewBox="0 0 300.000000 178.000000"
 preserveAspectRatio="xMidYMid meet">
<metadata>
Created by potrace 1.10, written by Peter Selinger 2001-2011
</metadata>
<g transform="translate(0.000000,178.000000) scale(0.100000,-0.100000)"
fill="#000" stroke="none">
<path d="M760 1460 c-20 -20 -20 -33 -20 -554 0 -473 2 -536 16 -550 21 -22
40 -20 101 9 77 35 255 91 358 111 124 25 403 25 532 1 110 -20 263 -67 352
-108 36 -17 74 -29 85 -27 44 6 46 23 46 579 0 497 -1 527 -18 542 -10 10 -23
17 -29 17 -6 0 -53 -20 -104 -44 -202 -96 -385 -138 -594 -138 -215 0 -406 45
-603 142 -46 22 -87 40 -92 40 -6 0 -19 -9 -30 -20z m72 -39 c60 -35 211 -92
328 -123 152 -40 367 -50 533 -23 126 19 288 70 402 126 43 21 83 39 87 39 4
0 8 -239 8 -531 0 -501 -1 -531 -17 -526 -10 3 -66 23 -124 46 -384 147 -761
144 -1150 -8 -58 -22 -108 -41 -112 -41 -4 0 -7 239 -7 530 0 325 4 530 9 530
6 0 25 -9 43 -19z"/>
<path d="M1325 1069 c-77 -132 -93 -153 -124 -165 -66 -26 -104 -49 -124 -76
-18 -24 -18 -30 -7 -58 23 -54 105 -91 256 -114 l89 -13 -37 -16 c-38 -16 -49
-34 -25 -42 17 -7 147 63 147 79 0 15 -110 86 -134 86 -26 0 -18 -20 14 -38
16 -9 30 -20 30 -24 0 -10 10 -11 -90 7 -114 20 -172 41 -201 71 -28 30 -21
46 33 78 41 24 60 16 33 -14 -9 -10 -15 -26 -12 -35 6 -13 46 -15 311 -15 201
0 307 4 311 10 4 6 -1 22 -10 36 -26 40 -14 46 32 16 57 -36 61 -51 23 -84
-29 -23 -62 -35 -195 -67 -16 -4 -30 -13 -30 -21 0 -36 193 11 250 61 67 60
42 119 -70 162 -58 22 -58 23 -124 136 -37 63 -71 116 -77 118 -6 2 -22 -17
-36 -42 l-25 -46 -46 80 c-26 45 -53 81 -60 81 -7 0 -53 -68 -102 -151z m180
-31 c39 -67 84 -143 102 -170 l32 -48 -210 0 c-191 0 -231 5 -200 25 9 5 108
167 164 265 28 51 28 50 35 50 4 -1 39 -55 77 -122z m135 -34 c0 -4 69 -118
98 -161 14 -23 13 -23 -24 -23 -39 1 -39 1 -100 105 l-61 104 20 31 20 31 23
-41 c13 -23 24 -44 24 -46z"/>
</g>
</svg>
